{
  "asset": {
    "generator": "Khronos glTF Blender I/O v3.4.50",
    "version": "2.0"
  },
  "scene": 0,
  "scenes": [
    {
      "name": "Scene",
      "nodes": [
        6
      ]
    }
  ],
  "nodes": [
    {
      "name": "Blades_end",
      "translation": [
        -1.9317880628477724e-14,
        0.5646536350250244,
        0
      ]
    },
    {
      "children": [
        0
      ],
      "name": "Blades",
      "rotation": [
        1.5454311608209537e-08,
        1.5454311608209537e-08,
        -0.7071068286895752,
        0.7071068286895752
      ],
      "translation": [
        0,
        1,
        7.105427357601002e-15
      ]
    },
    {
      "name": "Screw_end",
      "translation": [
        0,
        0.24733836948871613,
        8.985402644157148e-09
      ]
    },
    {
      "children": [
        2
      ],
      "name": "Screw",
      "rotation": [
        -0.7071068286895752,
        0,
        0,
        0.7071068286895752
      ],
      "translation": [
        2.4179720878601074,
        0.5602414608001709,
        -0.17366425693035126
      ]
    },
    {
      "children": [
        1,
        3
      ],
      "name": "Helicopter",
      "translation": [
        2.9802322387695312e-08,
        0,
        0
      ]
    },
    {
      "mesh": 0,
      "name": "Cylinder.002",
      "skin": 0
    },
    {
      "children": [
        5,
        4
      ],
      "name": "Armature",
      "translation": [
        -0.499320387840271,
        0.14354217052459717,
        0
      ]
    }
  ],
  "animations": [
    {
      "channels": [
        {
          "sampler": 0,
          "target": {
            "node": 4,
            "path": "translation"
          }
        },
        {
          "sampler": 1,
          "target": {
            "node": 4,
            "path": "rotation"
          }
        },
        {
          "sampler": 2,
          "target": {
            "node": 4,
            "path": "scale"
          }
        },
        {
          "sampler": 3,
          "target": {
            "node": 1,
            "path": "translation"
          }
        },
        {
          "sampler": 4,
          "target": {
            "node": 1,
            "path": "rotation"
          }
        },
        {
          "sampler": 5,
          "target": {
            "node": 1,
            "path": "scale"
          }
        },
        {
          "sampler": 6,
          "target": {
            "node": 0,
            "path": "translation"
          }
        },
        {
          "sampler": 7,
          "target": {
            "node": 0,
            "path": "rotation"
          }
        },
        {
          "sampler": 8,
          "target": {
            "node": 0,
            "path": "scale"
          }
        },
        {
          "sampler": 9,
          "target": {
            "node": 3,
            "path": "translation"
          }
        },
        {
          "sampler": 10,
          "target": {
            "node": 3,
            "path": "rotation"
          }
        },
        {
          "sampler": 11,
          "target": {
            "node": 3,
            "path": "scale"
          }
        },
        {
          "sampler": 12,
          "target": {
            "node": 2,
            "path": "translation"
          }
        },
        {
          "sampler": 13,
          "target": {
            "node": 2,
            "path": "rotation"
          }
        },
        {
          "sampler": 14,
          "target": {
            "node": 2,
            "path": "scale"
          }
        },
        {
          "sampler": 15,
          "target": {
            "node": 6,
            "path": "translation"
          }
        },
        {
          "sampler": 16,
          "target": {
            "node": 6,
            "path": "rotation"
          }
        },
        {
          "sampler": 17,
          "target": {
            "node": 6,
            "path": "scale"
          }
        }
      ],
      "name": "Armature|Armature|ArmatureAction.001",
      "samplers": [
        {
          "input": 7,
          "interpolation": "LINEAR",
          "output": 8
        },
        {
          "input": 7,
          "interpolation": "LINEAR",
          "output": 9
        },
        {
          "input": 7,
          "interpolation": "LINEAR",
          "output": 10
        },
        {
          "input": 7,
          "interpolation": "LINEAR",
          "output": 11
        },
        {
          "input": 7,
          "interpolation": "LINEAR",
          "output": 12
        },
        {
          "input": 7,
          "interpolation": "LINEAR",
          "output": 13
        },
        {
          "input": 7,
          "interpolation": "LINEAR",
          "output": 14
        },
        {
          "input": 7,
          "interpolation": "LINEAR",
          "output": 15
        },
        {
          "input": 7,
          "interpolation": "LINEAR",
          "output": 16
        },
        {
          "input": 7,
          "interpolation": "LINEAR",
          "output": 17
        },
        {
          "input": 7,
          "interpolation": "LINEAR",
          "output": 18
        },
        {
          "input": 7,
          "interpolation": "LINEAR",
          "output": 19
        },
        {
          "input": 7,
          "interpolation": "LINEAR",
          "output": 20
        },
        {
          "input": 7,
          "interpolation": "LINEAR",
          "output": 21
        },
        {
          "input": 7,
          "interpolation": "LINEAR",
          "output": 22
        },
        {
          "input": 7,
          "interpolation": "LINEAR",
          "output": 23
        },
        {
          "input": 7,
          "interpolation": "LINEAR",
          "output": 24
        },
        {
          "input": 7,
          "interpolation": "LINEAR",
          "output": 25
        }
      ]
    },
    {
      "channels": [
        {
          "sampler": 0,
          "target": {
            "node": 4,
            "path": "translation"
          }
        },
        {
          "sampler": 1,
          "target": {
            "node": 4,
            "path": "rotation"
          }
        },
        {
          "sampler": 2,
          "target": {
            "node": 4,
            "path": "scale"
          }
        },
        {
          "sampler": 3,
          "target": {
            "node": 1,
            "path": "translation"
          }
        },
        {
          "sampler": 4,
          "target": {
            "node": 1,
            "path": "rotation"
          }
        },
        {
          "sampler": 5,
          "target": {
            "node": 1,
            "path": "scale"
          }
        },
        {
          "sampler": 6,
          "target": {
            "node": 0,
            "path": "translation"
          }
        },
        {
          "sampler": 7,
          "target": {
            "node": 0,
            "path": "rotation"
          }
        },
        {
          "sampler": 8,
          "target": {
            "node": 0,
            "path": "scale"
          }
        },
        {
          "sampler": 9,
          "target": {
            "node": 3,
            "path": "translation"
          }
        },
        {
          "sampler": 10,
          "target": {
            "node": 3,
            "path": "rotation"
          }
        },
        {
          "sampler": 11,
          "target": {
            "node": 3,
            "path": "scale"
          }
        },
        {
          "sampler": 12,
          "target": {
            "node": 2,
            "path": "translation"
          }
        },
        {
          "sampler": 13,
          "target": {
            "node": 2,
            "path": "rotation"
          }
        },
        {
          "sampler": 14,
          "target": {
            "node": 2,
            "path": "scale"
          }
        },
        {
          "sampler": 15,
          "target": {
            "node": 6,
            "path": "translation"
          }
        },
        {
          "sampler": 16,
          "target": {
            "node": 6,
            "path": "rotation"
          }
        },
        {
          "sampler": 17,
          "target": {
            "node": 6,
            "path": "scale"
          }
        }
      ],
      "name": "Idle",
      "samplers": [
        {
          "input": 26,
          "interpolation": "LINEAR",
          "output": 27
        },
        {
          "input": 26,
          "interpolation": "LINEAR",
          "output": 28
        },
        {
          "input": 26,
          "interpolation": "LINEAR",
          "output": 29
        },
        {
          "input": 26,
          "interpolation": "LINEAR",
          "output": 30
        },
        {
          "input": 26,
          "interpolation": "LINEAR",
          "output": 31
        },
        {
          "input": 26,
          "interpolation": "LINEAR",
          "output": 32
        },
        {
          "input": 26,
          "interpolation": "LINEAR",
          "output": 33
        },
        {
          "input": 26,
          "interpolation": "LINEAR",
          "output": 34
        },
        {
          "input": 26,
          "interpolation": "LINEAR",
          "output": 35
        },
        {
          "input": 26,
          "interpolation": "LINEAR",
          "output": 36
        },
        {
          "input": 26,
          "interpolation": "LINEAR",
          "output": 37
        },
        {
          "input": 26,
          "interpolation": "LINEAR",
          "output": 38
        },
        {
          "input": 26,
          "interpolation": "LINEAR",
          "output": 39
        },
        {
          "input": 26,
          "interpolation": "LINEAR",
          "output": 40
        },
        {
          "input": 26,
          "interpolation": "LINEAR",
          "output": 41
        },
        {
          "input": 26,
          "interpolation": "LINEAR",
          "output": 42
        },
        {
          "input": 26,
          "interpolation": "LINEAR",
          "output": 43
        },
        {
          "input": 26,
          "interpolation": "LINEAR",
          "output": 44
        }
      ]
    }
  ],
  "materials": [
    {
      "doubleSided": true,
      "name": "Helicopter",
      "pbrMetallicRoughness": {
        "baseColorTexture": {
          "index": 0
        }
      }
    }
  ],
  "meshes": [
    {
      "name": "Cylinder.002",
      "primitives": [
        {
          "attributes": {
            "POSITION": 0,
            "TEXCOORD_0": 1,
            "NORMAL": 2,
            "JOINTS_0": 3,
            "WEIGHTS_0": 4
          },
          "indices": 5,
          "material": 0
        }
      ]
    }
  ],
  "textures": [
    {
      "sampler": 0,
      "source": 0
    }
  ],
  "images": [
    {
      "mimeType": "image/jpeg",
      "name": "Helicopter_albedo2",
      "uri": "Helicopter_albedo2.jpg"
    }
  ],
  "skins": [
    {
      "inverseBindMatrices": 6,
      "joints": [
        4,
        1,
        0,
        3,
        2
      ],
      "name": "Armature"
    }
  ],
  "accessors": [
    {
      "bufferView": 0,
      "componentType": 5126,
      "count": 15112,
      "max": [
        2.4121601581573486,
        1.2438913583755493,
        1.615128517150879
      ],
      "min": [
        -1.7342753410339355,
        0.0010821569012477994,
        -1.767555594444275
      ],
      "type": "VEC3"
    },
    {
      "bufferView": 1,
      "componentType": 5126,
      "count": 15112,
      "type": "VEC2"
    },
    {
      "bufferView": 2,
      "componentType": 5126,
      "count": 15112,
      "type": "VEC3"
    },
    {
      "bufferView": 3,
      "componentType": 5121,
      "count": 15112,
      "type": "VEC4"
    },
    {
      "bufferView": 4,
      "componentType": 5126,
      "count": 15112,
      "type": "VEC4"
    },
    {
      "bufferView": 5,
      "componentType": 5123,
      "count": 65388,
      "type": "SCALAR"
    },
    {
      "bufferView": 6,
      "componentType": 5126,
      "count": 5,
      "type": "MAT4"
    },
    {
      "bufferView": 7,
      "componentType": 5126,
      "count": 220,
      "max": [
        9.166666666666666
      ],
      "min": [
        0.041666666666666664
      ],
      "type": "SCALAR"
    },
    {
      "bufferView": 8,
      "componentType": 5126,
      "count": 220,
      "type": "VEC3"
    },
    {
      "bufferView": 9,
      "componentType": 5126,
      "count": 220,
      "type": "VEC4"
    },
    {
      "bufferView": 10,
      "componentType": 5126,
      "count": 220,
      "type": "VEC3"
    },
    {
      "bufferView": 11,
      "componentType": 5126,
      "count": 220,
      "type": "VEC3"
    },
    {
      "bufferView": 12,
      "componentType": 5126,
      "count": 220,
      "type": "VEC4"
    },
    {
      "bufferView": 13,
      "componentType": 5126,
      "count": 220,
      "type": "VEC3"
    },
    {
      "bufferView": 14,
      "componentType": 5126,
      "count": 220,
      "type": "VEC3"
    },
    {
      "bufferView": 15,
      "componentType": 5126,
      "count": 220,
      "type": "VEC4"
    },
    {
      "bufferView": 16,
      "componentType": 5126,
      "count": 220,
      "type": "VEC3"
    },
    {
      "bufferView": 17,
      "componentType": 5126,
      "count": 220,
      "type": "VEC3"
    },
    {
      "bufferView": 18,
      "componentType": 5126,
      "count": 220,
      "type": "VEC4"
    },
    {
      "bufferView": 19,
      "componentType": 5126,
      "count": 220,
      "type": "VEC3"
    },
    {
      "bufferView": 20,
      "componentType": 5126,
      "count": 220,
      "type": "VEC3"
    },
    {
      "bufferView": 21,
      "componentType": 5126,
      "count": 220,
      "type": "VEC4"
    },
    {
      "bufferView": 22,
      "componentType": 5126,
      "count": 220,
      "type": "VEC3"
    },
    {
      "bufferView": 23,
      "componentType": 5126,
      "count": 220,
      "type": "VEC3"
    },
    {
      "bufferView": 24,
      "componentType": 5126,
      "count": 220,
      "type": "VEC4"
    },
    {
      "bufferView": 25,
      "componentType": 5126,
      "count": 220,
      "type": "VEC3"
    },
    {
      "bufferView": 26,
      "componentType": 5126,
      "count": 22,
      "max": [
        0.9166666666666666
      ],
      "min": [
        0.041666666666666664
      ],
      "type": "SCALAR"
    },
    {
      "bufferView": 27,
      "componentType": 5126,
      "count": 22,
      "type": "VEC3"
    },
    {
      "bufferView": 28,
      "componentType": 5126,
      "count": 22,
      "type": "VEC4"
    },
    {
      "bufferView": 29,
      "componentType": 5126,
      "count": 22,
      "type": "VEC3"
    },
    {
      "bufferView": 30,
      "componentType": 5126,
      "count": 22,
      "type": "VEC3"
    },
    {
      "bufferView": 31,
      "componentType": 5126,
      "count": 22,
      "type": "VEC4"
    },
    {
      "bufferView": 32,
      "componentType": 5126,
      "count": 22,
      "type": "VEC3"
    },
    {
      "bufferView": 33,
      "componentType": 5126,
      "count": 22,
      "type": "VEC3"
    },
    {
      "bufferView": 34,
      "componentType": 5126,
      "count": 22,
      "type": "VEC4"
    },
    {
      "bufferView": 35,
      "componentType": 5126,
      "count": 22,
      "type": "VEC3"
    },
    {
      "bufferView": 36,
      "componentType": 5126,
      "count": 22,
      "type": "VEC3"
    },
    {
      "bufferView": 37,
      "componentType": 5126,
      "count": 22,
      "type": "VEC4"
    },
    {
      "bufferView": 38,
      "componentType": 5126,
      "count": 22,
      "type": "VEC3"
    },
    {
      "bufferView": 39,
      "componentType": 5126,
      "count": 22,
      "type": "VEC3"
    },
    {
      "bufferView": 40,
      "componentType": 5126,
      "count": 22,
      "type": "VEC4"
    },
    {
      "bufferView": 41,
      "componentType": 5126,
      "count": 22,
      "type": "VEC3"
    },
    {
      "bufferView": 42,
      "componentType": 5126,
      "count": 22,
      "type": "VEC3"
    },
    {
      "bufferView": 43,
      "componentType": 5126,
      "count": 22,
      "type": "VEC4"
    },
    {
      "bufferView": 44,
      "componentType": 5126,
      "count": 22,
      "type": "VEC3"
    }
  ],
  "bufferViews": [
    {
      "buffer": 0,
      "byteLength": 181344,
      "byteOffset": 0,
      "target": 34962
    },
    {
      "buffer": 0,
      "byteLength": 120896,
      "byteOffset": 181344,
      "target": 34962
    },
    {
      "buffer": 0,
      "byteLength": 181344,
      "byteOffset": 302240,
      "target": 34962
    },
    {
      "buffer": 0,
      "byteLength": 60448,
      "byteOffset": 483584,
      "target": 34962
    },
    {
      "buffer": 0,
      "byteLength": 241792,
      "byteOffset": 544032,
      "target": 34962
    },
    {
      "buffer": 0,
      "byteLength": 130776,
      "byteOffset": 785824,
      "target": 34963
    },
    {
      "buffer": 0,
      "byteLength": 320,
      "byteOffset": 916600
    },
    {
      "buffer": 0,
      "byteLength": 880,
      "byteOffset": 916920
    },
    {
      "buffer": 0,
      "byteLength": 2640,
      "byteOffset": 917800
    },
    {
      "buffer": 0,
      "byteLength": 3520,
      "byteOffset": 920440
    },
    {
      "buffer": 0,
      "byteLength": 2640,
      "byteOffset": 923960
    },
    {
      "buffer": 0,
      "byteLength": 2640,
      "byteOffset": 926600
    },
    {
      "buffer": 0,
      "byteLength": 3520,
      "byteOffset": 929240
    },
    {
      "buffer": 0,
      "byteLength": 2640,
      "byteOffset": 932760
    },
    {
      "buffer": 0,
      "byteLength": 2640,
      "byteOffset": 935400
    },
    {
      "buffer": 0,
      "byteLength": 3520,
      "byteOffset": 938040
    },
    {
      "buffer": 0,
      "byteLength": 2640,
      "byteOffset": 941560
    },
    {
      "buffer": 0,
      "byteLength": 2640,
      "byteOffset": 944200
    },
    {
      "buffer": 0,
      "byteLength": 3520,
      "byteOffset": 946840
    },
    {
      "buffer": 0,
      "byteLength": 2640,
      "byteOffset": 950360
    },
    {
      "buffer": 0,
      "byteLength": 2640,
      "byteOffset": 953000
    },
    {
      "buffer": 0,
      "byteLength": 3520,
      "byteOffset": 955640
    },
    {
      "buffer": 0,
      "byteLength": 2640,
      "byteOffset": 959160
    },
    {
      "buffer": 0,
      "byteLength": 2640,
      "byteOffset": 961800
    },
    {
      "buffer": 0,
      "byteLength": 3520,
      "byteOffset": 964440
    },
    {
      "buffer": 0,
      "byteLength": 2640,
      "byteOffset": 967960
    },
    {
      "buffer": 0,
      "byteLength": 88,
      "byteOffset": 970600
    },
    {
      "buffer": 0,
      "byteLength": 264,
      "byteOffset": 970688
    },
    {
      "buffer": 0,
      "byteLength": 352,
      "byteOffset": 970952
    },
    {
      "buffer": 0,
      "byteLength": 264,
      "byteOffset": 971304
    },
    {
      "buffer": 0,
      "byteLength": 264,
      "byteOffset": 971568
    },
    {
      "buffer": 0,
      "byteLength": 352,
      "byteOffset": 971832
    },
    {
      "buffer": 0,
      "byteLength": 264,
      "byteOffset": 972184
    },
    {
      "buffer": 0,
      "byteLength": 264,
      "byteOffset": 972448
    },
    {
      "buffer": 0,
      "byteLength": 352,
      "byteOffset": 972712
    },
    {
      "buffer": 0,
      "byteLength": 264,
      "byteOffset": 973064
    },
    {
      "buffer": 0,
      "byteLength": 264,
      "byteOffset": 973328
    },
    {
      "buffer": 0,
      "byteLength": 352,
      "byteOffset": 973592
    },
    {
      "buffer": 0,
      "byteLength": 264,
      "byteOffset": 973944
    },
    {
      "buffer": 0,
      "byteLength": 264,
      "byteOffset": 974208
    },
    {
      "buffer": 0,
      "byteLength": 352,
      "byteOffset": 974472
    },
    {
      "buffer": 0,
      "byteLength": 264,
      "byteOffset": 974824
    },
    {
      "buffer": 0,
      "byteLength": 264,
      "byteOffset": 975088
    },
    {
      "buffer": 0,
      "byteLength": 352,
      "byteOffset": 975352
    },
    {
      "buffer": 0,
      "byteLength": 264,
      "byteOffset": 975704
    }
  ],
  "samplers": [
    {
      "magFilter": 9729,
      "minFilter": 9987
    }
  ],
  "buffers": [
    {
      "byteLength": 975968,
      "uri": "data:application/octet-stream;base64,"
    }
  ]
}